<svg width="60" height="40" viewBox="0 0 60 40" xmlns="http://www.w3.org/2000/svg">
  <!-- AWS Logo with orange smile/arrow -->
  <rect width="60" height="40" rx="4" fill="#232F3E"/>
  <!-- AWS Text -->
  <path d="M16 19.5c0-1.1.9-2 2-2h.8c.4 0 .7.3.7.7 0 .4-.3.7-.7.7H18c-.2 0-.4.2-.4.4v2.6c0 .2.2.4.4.4h.8c.4 0 .7.3.7.7 0 .4-.3.7-.7.7H18c-1.1 0-2-.9-2-2v-2.2z" fill="#FFFFFF"/>
  <path d="M20.5 17.5h.8c.4 0 .7.3.7.7v3.1c0 .1.1.2.2.2h.6c.1 0 .2-.1.2-.2v-3.1c0-.4.3-.7.7-.7h.8c.4 0 .7.3.7.7v3.1c0 .1.1.2.2.2h.6c.1 0 .2-.1.2-.2v-3.1c0-.4.3-.7.7-.7h.8c.4 0 .7.3.7.7v3.3c0 1.1-.9 2-2 2h-.9c-.5 0-1-.2-1.3-.5-.3.3-.8.5-1.3.5h-.9c-1.1 0-2-.9-2-2v-3.3c0-.4.3-.7.7-.7z" fill="#FFFFFF"/>
  <path d="M32.5 19.2c0 .4-.3.7-.7.7h-1.6c-.1 0-.2.1-.2.2 0 .1.1.2.2.2h1.8c1.1 0 2 .9 2 2 0 1.1-.9 2-2 2h-2.3c-.4 0-.7-.3-.7-.7 0-.4.3-.7.7-.7H32c.2 0 .4-.2.4-.4 0-.2-.2-.4-.4-.4h-1.8c-1.1 0-2-.9-2-2 0-1.1.9-2 2-2h1.6c.4 0 .7.3.7.7z" fill="#FFFFFF"/>
  <!-- AWS Orange Arrow/Smile -->
  <path d="M38 26c0 .3.2.5.5.5.1 0 .3 0 .4-.1 4.1-2.4 6.7-4 6.7-4.4 0-.2-.1-.3-.3-.3-.1 0-.2 0-.3.1-1.8.9-4.4 1.9-7 1.9s-5.2-1-7-1.9c-.1-.1-.2-.1-.3-.1-.2 0-.3.1-.3.3 0 .4 2.6 2 6.7 4.4.1.1.2.1.4.1.3 0 .5-.2.5-.5z" fill="#FF9900"/>
</svg>