<svg width="60" height="40" viewBox="0 0 60 40" xmlns="http://www.w3.org/2000/svg">
  <!-- Docker Whale Logo -->
  <rect width="60" height="40" rx="4" fill="#2496ED"/>
  <!-- Container boxes on whale -->
  <g fill="#ffffff">
    <!-- First row of containers -->
    <rect x="18" y="13" width="3.5" height="3.5"/>
    <rect x="22" y="13" width="3.5" height="3.5"/>
    <rect x="26" y="13" width="3.5" height="3.5"/>
    <rect x="30" y="13" width="3.5" height="3.5"/>
    <rect x="34" y="13" width="3.5" height="3.5"/>
    <!-- Second row -->
    <rect x="18" y="17" width="3.5" height="3.5"/>
    <rect x="22" y="17" width="3.5" height="3.5"/>
    <rect x="26" y="17" width="3.5" height="3.5"/>
    <rect x="30" y="17" width="3.5" height="3.5"/>
    <!-- Third row -->
    <rect x="22" y="21" width="3.5" height="3.5"/>
    <!-- Whale body -->
    <path d="M45 19c0-0.5-0.5-1-1-1h-2.5c-0.3 0-0.5 0.2-0.5 0.5v0.5h-3v-8h-24v13h24c0 0 0 3-1 4s-2 1-2 1h11s4 0 4-5c0 0 3-1 3-3s-8-2-8-2z"/>
    <!-- Water spout -->
    <path d="M41 17c0-1 1-2 1-2s1 1 1 2"/>
  </g>
</svg>