<svg width="60" height="40" viewBox="0 0 60 40" xmlns="http://www.w3.org/2000/svg">
  <!-- GitHub Octocat Logo -->
  <rect width="60" height="40" rx="4" fill="#24292e"/>
  <path fill-rule="evenodd" clip-rule="evenodd" d="M30 7c-7.18 0-13 5.82-13 13 0 5.74 3.72 10.61 8.89 12.33.65.12.89-.28.89-.63 0-.31-.01-1.12-.02-2.2-3.62.79-4.38-1.74-4.38-1.74-.59-1.5-1.45-1.9-1.45-1.9-1.18-.81.09-.79.09-.79 1.31.09 2 1.34 2 1.34 1.16 1.99 3.05 1.42 3.79 1.08.12-.84.45-1.42.82-1.74-2.89-.33-5.93-1.44-5.93-6.43 0-1.42.51-2.58 1.34-3.49-.13-.33-.58-1.65.13-3.44 0 0 1.09-.35 3.58 1.33 1.04-.29 2.15-.43 3.26-.44 1.1.01 2.21.15 3.25.44 2.48-1.68 3.58-1.33 3.58-1.33.71 1.79.26 3.11.13 3.44.83.91 1.34 2.07 1.34 3.49 0 5-3.04 6.1-5.94 6.42.47.4.88 1.19.88 2.4 0 1.74-.02 3.14-.02 3.57 0 .35.24.75.89.62C39.28 30.61 43 25.74 43 20c0-7.18-5.82-13-13-13" fill="#ffffff"/>
</svg>