<svg width="60" height="40" viewBox="0 0 60 40" xmlns="http://www.w3.org/2000/svg">
  <!-- Kubernetes Ship Wheel Logo -->
  <rect width="60" height="40" rx="4" fill="#326CE5"/>
  <g transform="translate(30, 20)">
    <!-- Ship wheel design -->
    <path d="M0 -1.5l-1.04 -0.6v-4.2l-2.4 -0.87c-0.15 -0.66 -0.36 -1.29 -0.63 -1.89l1.44 -2.07l-2.97 -2.97l-2.07 1.44c-0.6 -0.27 -1.23 -0.48 -1.89 -0.63l-0.87 -2.4h-4.2l-0.87 2.4c-0.66 0.15 -1.29 0.36 -1.89 0.63l-2.07 -1.44l-2.97 2.97l1.44 2.07c-0.27 0.6 -0.48 1.23 -0.63 1.89l-2.4 0.87v4.2l2.4 0.87c0.15 0.66 0.36 1.29 0.63 1.89l-1.44 2.07l2.97 2.97l2.07 -1.44c0.6 0.27 1.23 0.48 1.89 0.63l0.87 2.4h4.2l0.87 -2.4c0.66 -0.15 1.29 -0.36 1.89 -0.63l2.07 1.44l2.97 -2.97l-1.44 -2.07c0.27 -0.6 0.48 -1.23 0.63 -1.89l2.4 -0.87v-4.2l-2.4 -0.87c-0.15 -0.66 -0.36 -1.29 -0.63 -1.89l1.44 -2.07l-2.97 -2.97l-2.07 1.44c-0.6 -0.27 -1.23 -0.48 -1.89 -0.63l-0.87 -2.4h-1.65" 
          fill="#ffffff" transform="scale(0.6)"/>
    <!-- Center hexagon -->
    <path d="M0 -4l3.46 2v4l-3.46 2l-3.46 -2v-4z" fill="#326CE5" transform="scale(0.45)"/>
    <!-- Spokes -->
    <g stroke="#ffffff" stroke-width="0.8" fill="none">
      <line x1="0" y1="-2.7" x2="0" y2="-6"/>
      <line x1="2.34" y1="-1.35" x2="5.2" y2="-3"/>
      <line x1="2.34" y1="1.35" x2="5.2" y2="3"/>
      <line x1="0" y1="2.7" x2="0" y2="6"/>
      <line x1="-2.34" y1="1.35" x2="-5.2" y2="3"/>
      <line x1="-2.34" y1="-1.35" x2="-5.2" y2="-3"/>
    </g>
  </g>
</svg>
