<svg width="60" height="40" viewBox="0 0 60 40" xmlns="http://www.w3.org/2000/svg">
  <!-- Slack Hashtag Logo -->
  <rect width="60" height="40" rx="4" fill="#4A154B"/>
  <g transform="translate(30, 20)">
    <!-- Blue segment -->
    <path d="M-7.5 -2.5c0 -1.38 1.12 -2.5 2.5 -2.5s2.5 1.12 2.5 2.5v2.5h-2.5c-1.38 0 -2.5 -1.12 -2.5 -2.5z" fill="#36C5F0"/>
    <path d="M-2.5 -2.5c0 -1.38 1.12 -2.5 2.5 -2.5s2.5 1.12 2.5 2.5v7.5c0 1.38 -1.12 2.5 -2.5 2.5s-2.5 -1.12 -2.5 -2.5v-7.5z" fill="#36C5F0"/>
    <!-- Green segment -->
    <path d="M0 7.5c-1.38 0 -2.5 -1.12 -2.5 -2.5s1.12 -2.5 2.5 -2.5h2.5v2.5c0 1.38 -1.12 2.5 -2.5 2.5z" fill="#2EB67D"/>
    <path d="M0 2.5c-1.38 0 -2.5 -1.12 -2.5 -2.5s1.12 -2.5 2.5 -2.5h7.5c1.38 0 2.5 1.12 2.5 2.5s-1.12 2.5 -2.5 2.5h-7.5z" fill="#2EB67D"/>
    <!-- Yellow segment -->
    <path d="M7.5 0c0 1.38 -1.12 2.5 -2.5 2.5s-2.5 -1.12 -2.5 -2.5v-2.5h2.5c1.38 0 2.5 1.12 2.5 2.5z" fill="#ECB22E"/>
    <path d="M2.5 0c0 1.38 -1.12 2.5 -2.5 2.5s-2.5 -1.12 -2.5 -2.5v-7.5c0 -1.38 1.12 -2.5 2.5 -2.5s2.5 1.12 2.5 2.5v7.5z" fill="#ECB22E"/>
    <!-- Red segment -->
    <path d="M0 -7.5c1.38 0 2.5 1.12 2.5 2.5s-1.12 2.5 -2.5 2.5h-2.5v-2.5c0 -1.38 1.12 -2.5 2.5 -2.5z" fill="#E01E5A"/>
    <path d="M0 -2.5c1.38 0 2.5 1.12 2.5 2.5s-1.12 2.5 -2.5 2.5h-7.5c-1.38 0 -2.5 -1.12 -2.5 -2.5s1.12 -2.5 2.5 -2.5h7.5z" fill="#E01E5A"/>
  </g>
</svg>
