<svg width="40" height="40" viewBox="0 0 40 40" xmlns="http://www.w3.org/2000/svg">
  <!-- Capterra Logo - Orange rectangle with text -->
  <rect width="40" height="40" rx="4" fill="#FF9E18"/>
  <g fill="white">
    <!-- Simplified Capterra wordmark -->
    <path d="M5 20c0-2.21 1.79-4 4-4 1.1 0 2.1.45 2.83 1.17l-1.42 1.42C9.95 18.13 9.5 17.75 9 17.75c-1 0-1.75.75-1.75 1.75s.75 1.75 1.75 1.75c.7 0 1.3-.4 1.6-.95H9v-1.5h3.5v.7c0 2.21-1.79 4-4 4s-4-1.79-4-4z" transform="translate(0, 0.5)"/>
    <text x="14" y="23.5" font-family="Arial, sans-serif" font-size="7" font-weight="600" fill="white">apterra</text>
  </g>
</svg>