<svg width="40" height="40" viewBox="0 0 40 40" xmlns="http://www.w3.org/2000/svg">
  <!-- G2 Logo - Orange/red circle with G2 text -->
  <circle cx="20" cy="20" r="20" fill="#FF492C"/>
  <g fill="white">
    <!-- G -->
    <path d="M13.5 20c0-3.58 2.92-6.5 6.5-6.5 1.79 0 3.41.73 4.58 1.9l-2.04 2.04c-.62-.62-1.52-1.01-2.54-1.01-2.01 0-3.64 1.63-3.64 3.64s1.63 3.64 3.64 3.64c1.29 0 2.42-.67 3.06-1.68h-3.06v-2.86h6.36c.09.47.14.96.14 1.47 0 3.58-2.92 6.5-6.5 6.5-3.58 0-6.5-2.92-6.5-6.5z"/>
    <!-- 2 -->
    <path d="M25.5 26.5v-2.3l3.7-3.4c.9-.8 1.3-1.5 1.3-2.3 0-.9-.7-1.5-1.6-1.5-.9 0-1.6.6-1.6 1.5h-2.7c0-2.3 1.9-4 4.3-4 2.4 0 4.3 1.6 4.3 3.8 0 1.4-.7 2.6-2.1 3.8l-2.5 2.3h4.6v2.1h-7.7z" transform="scale(0.8) translate(7, 4)"/>
  </g>
</svg>