<svg width="60" height="40" viewBox="0 0 60 40" xmlns="http://www.w3.org/2000/svg">
  <!-- GitLab Logo -->
  <rect width="60" height="40" rx="4" fill="#FCA326"/>
  <!-- GitLab Tanuki (fox-like mascot) shape -->
  <g transform="translate(30, 20)">
    <path d="M0 10l-3.5 -10.5c-0.2 -0.6 -1 -0.6 -1.2 0l-2.3 7h-7l-2.3 -7c-0.2 -0.6 -1 -0.6 -1.2 0l-3.5 10.5c-0.2 0.5 0 1.1 0.5 1.4l11 8c0.3 0.2 0.7 0.2 1 0l11 -8c0.5 -0.3 0.7 -0.9 0.5 -1.4z" fill="#E24329"/>
    <path d="M0 10l-3.5 -10.5h-3.5l7 20.5v-10z" fill="#FC6D26"/>
    <path d="M0 10l3.5 -10.5h3.5l-7 20.5v-10z" fill="#FC6D26"/>
    <path d="M-7 -0.5h-7l-3.5 10.5l10.5 -10.5z" fill="#FCA326"/>
    <path d="M7 -0.5h7l3.5 10.5l-10.5 -10.5z" fill="#FCA326"/>
  </g>
</svg>
